<svg width="62" height="62" viewBox="0 0 62 62" fill="none" xmlns="http://www.w3.org/2000/svg">
<path fill-rule="evenodd" clip-rule="evenodd" d="M39.804 0.000459243C45.5602 0.0374905 50.9649 2.21483 55.0224 6.13171C59.0949 10.0636 61.3707 15.3201 61.4298 20.9334C61.5066 28.2098 57.8012 34.9256 51.518 38.8969C48.9788 40.5019 47.678 43.4217 48.2823 46.1625C48.5007 47.1548 48.5954 48.1772 48.5635 49.2009C48.4651 52.3481 47.1619 55.3331 44.8941 57.6061C42.639 59.8669 39.6296 61.2197 36.421 61.4151C36.1496 61.432 35.8782 61.44 35.6077 61.44C32.1615 61.44 28.8432 60.1069 26.3982 57.7158C23.7441 55.1198 22.6444 51.292 23.2177 46.6453C24.2804 38.0358 23.3044 31.7245 19.8498 24.8611C18.2124 21.6075 17.8341 18.2691 18.7557 15.2067C20.0593 10.8764 22.8291 6.98765 26.5552 4.25671C30.3966 1.4414 34.973 -0.0295408 39.804 0.000459243ZM45.4219 40.6411C46.2938 38.6836 47.7366 37.028 49.5943 35.8537C54.8148 32.5542 57.8935 26.9906 57.8302 20.9714C57.7815 16.3294 55.8962 11.9789 52.5221 8.72155C49.133 5.45015 44.6082 3.6314 39.781 3.60046C35.7348 3.5803 31.8966 4.80562 28.6833 7.16062C25.584 9.43171 23.2824 12.6581 22.2033 16.2445C21.3807 18.9778 22.2179 21.5587 23.0654 23.2425C27.7843 32.617 27.5968 40.5567 26.791 47.0864C26.3541 50.6259 27.069 53.3362 28.9154 55.1419C30.8265 57.0108 33.481 57.9872 36.2021 57.8217C38.5308 57.6801 40.7129 56.7005 42.3455 55.0636C43.9651 53.4403 44.8955 51.3183 44.9649 49.0884C44.9879 48.3628 44.9208 47.6386 44.7666 46.9373C44.3012 44.8251 44.528 42.6483 45.4219 40.6411ZM39.6568 8.52468C32.5018 8.52468 26.6804 14.1905 26.6804 21.1547V21.1758C26.6804 21.743 26.948 22.2773 27.4023 22.6172C27.8565 22.957 28.4443 23.0625 28.9885 22.9026C30.0362 22.5947 31.2348 22.7034 32.1952 23.1937C33.6258 23.925 34.5202 25.4512 34.4204 26.9916C34.321 28.5155 33.2537 29.9189 31.764 30.4833C30.8344 30.8358 30.3666 31.875 30.7187 32.8045C30.9915 33.5241 31.6758 33.967 32.4024 33.967C32.6143 33.967 32.8299 33.9291 33.0399 33.8498C35.8252 32.7942 37.8235 30.1322 38.0124 27.225C38.2046 24.2714 36.5246 21.3633 33.8326 19.988C32.8079 19.4644 31.6683 19.177 30.5171 19.1339C31.4724 15.1247 35.2079 12.1247 39.6568 12.1247C44.8271 12.1247 49.0332 16.1756 49.0332 21.1547C49.0332 22.1489 49.8394 22.9547 50.8332 22.9547C51.8274 22.9547 52.6337 22.1489 52.6337 21.1547C52.6337 14.1905 46.8123 8.52468 39.6568 8.52468ZM11.1301 24.9787C11.8215 24.2648 12.9615 24.247 13.6749 24.9384C17.1563 28.3116 19.0735 32.8073 19.0735 37.5975C19.0735 42.3876 17.1563 46.8834 13.6754 50.2566C13.3257 50.5955 12.8738 50.7642 12.4229 50.7642C11.9527 50.7642 11.483 50.5809 11.1301 50.2167C10.4382 49.5028 10.456 48.3633 11.1699 47.6714C13.9454 44.9822 15.4735 41.4047 15.4735 37.5975C15.4735 33.7908 13.9454 30.2133 11.1699 27.5241C10.456 26.8322 10.4382 25.6926 11.1301 24.9787ZM0.531161 33.7992C-0.173838 34.4995 -0.177589 35.6395 0.523193 36.3445C1.09413 36.9192 1.09413 37.8544 0.523193 38.4291C-0.177589 39.1341 -0.173838 40.2736 0.531161 40.9744C0.882255 41.3236 1.34116 41.4975 1.80007 41.4975C2.26272 41.4975 2.72538 41.3203 3.07694 40.9664C5.03819 38.9925 5.03819 35.7811 3.07694 33.8072C2.37616 33.1022 1.23663 33.0984 0.531161 33.7992ZM5.86929 30.0764C6.56069 29.3625 7.70022 29.3442 8.4146 30.0361C10.4954 32.0526 11.6415 34.7381 11.6415 37.5975C11.6415 40.4573 10.4954 43.1428 8.4146 45.1594C8.06491 45.4978 7.61304 45.6665 7.1621 45.6665C6.69147 45.6665 6.22226 45.4833 5.86929 45.1191C5.17741 44.4051 5.19522 43.2656 5.90913 42.5737C7.28444 41.2416 8.04147 39.4744 8.04147 37.5975C8.04147 35.7211 7.28444 33.9539 5.90913 32.6217C5.19522 31.9298 5.17741 30.7903 5.86929 30.0764Z" fill="#FF6565"/>
</svg>
