<svg width="95" height="66" viewBox="0 0 95 66" fill="none" xmlns="http://www.w3.org/2000/svg">
<path fill-rule="evenodd" clip-rule="evenodd" d="M45.1039 1.95003C45.027 0.860221 44.1186 0 43.0092 0C41.8494 0 40.9092 0.9402 40.9092 2.1V63.2571L40.9145 63.4071C40.9914 64.4969 41.8998 65.3571 43.0092 65.3571C44.169 65.3571 45.1092 64.4169 45.1092 63.2571V2.1L45.1039 1.95003ZM53.2858 7.15769C53.2089 6.06765 52.3005 5.2077 51.1911 5.2077C50.0313 5.2077 49.0911 6.1479 49.0911 7.3077V58.0497L49.0964 58.1997C49.1733 59.2895 50.0817 60.1497 51.1911 60.1497C52.3509 60.1497 53.2911 59.2095 53.2911 58.0497V7.3077L53.2858 7.15769ZM34.8276 14.5551C35.937 14.5551 36.8454 15.4153 36.9223 16.5051L36.9276 16.6551V48.7023C36.9276 49.8621 35.9874 50.8023 34.8276 50.8023C33.7182 50.8023 32.8098 49.9421 32.7329 48.8523L32.7276 48.7023V16.6551C32.7276 15.4953 33.6678 14.5551 34.8276 14.5551ZM61.4674 17.5731C61.3905 16.4833 60.4821 15.6231 59.3727 15.6231C58.2129 15.6231 57.2727 16.5633 57.2727 17.7231V47.634L57.278 47.784C57.3549 48.8738 58.2633 49.734 59.3727 49.734C60.5325 49.734 61.4727 48.7938 61.4727 47.634V17.7231L61.4674 17.5731ZM26.6454 20.6976C27.7551 20.6976 28.6633 21.5575 28.7401 22.6476L28.7454 22.7976V42.5601C28.7454 43.7199 27.8052 44.6601 26.6454 44.6601C25.536 44.6601 24.6276 43.7999 24.5507 42.7101L24.5454 42.5601V22.7976C24.5454 21.6378 25.4856 20.6976 26.6454 20.6976ZM69.6496 23.8488C69.5727 22.759 68.6643 21.8988 67.5549 21.8988C66.3951 21.8988 65.4549 22.839 65.4549 23.9988V41.358L65.4602 41.508C65.5371 42.5978 66.4455 43.458 67.5549 43.458C68.7147 43.458 69.6549 42.5178 69.6549 41.358V23.9988L69.6496 23.8488ZM18.4638 24.1692C19.5732 24.1692 20.4816 25.0294 20.5585 26.1192L20.5638 26.2692V39.0882C20.5638 40.248 19.6236 41.1882 18.4638 41.1882C17.3544 41.1882 16.446 40.328 16.3691 39.2382L16.3638 39.0882V26.2692C16.3638 25.1094 17.304 24.1692 18.4638 24.1692ZM77.8315 26.52C77.7546 25.4302 76.8462 24.57 75.7368 24.57C74.577 24.57 73.6368 25.5102 73.6368 26.67V38.6877L73.6421 38.8377C73.719 39.9275 74.6274 40.7877 75.7368 40.7877C76.8966 40.7877 77.8368 39.8475 77.8368 38.6877V26.67L77.8315 26.52ZM2.1 27.1071C3.20937 27.1071 4.11783 27.967 4.19473 29.0571L4.2 29.2071V36.1506C4.2 37.3104 3.2598 38.2506 2.1 38.2506C0.990626 38.2506 0.0821716 37.3904 0.00527272 36.3006L0 36.1506V29.2071C0 28.0473 0.9402 27.1071 2.1 27.1071ZM12.3766 29.0571C12.2998 27.967 11.3916 27.1071 10.2819 27.1071C9.1221 27.1071 8.1819 28.0473 8.1819 29.2071V36.1506L8.18717 36.3006C8.26407 37.3904 9.17253 38.2506 10.2819 38.2506C11.4417 38.2506 12.3819 37.3104 12.3819 36.1506V29.2071L12.3766 29.0571ZM83.9184 27.1071C85.0278 27.1071 85.9362 27.967 86.0131 29.0571L86.0184 29.2071V36.1506C86.0184 37.3104 85.0782 38.2506 83.9184 38.2506C82.809 38.2506 81.9006 37.3904 81.8237 36.3006L81.8184 36.1506V29.2071C81.8184 28.0473 82.7586 27.1071 83.9184 27.1071ZM94.1947 29.0571C94.1178 27.967 93.2094 27.1071 92.1 27.1071C90.9402 27.1071 90 28.0473 90 29.2071V36.1506L90.0053 36.3006C90.0822 37.3904 90.9906 38.2506 92.1 38.2506C93.2598 38.2506 94.2 37.3104 94.2 36.1506V29.2071L94.1947 29.0571Z" fill="#FF6565"/>
</svg>
